<svg width="12" height="12" viewBox="0 0 12 12" fill="none" xmlns="http://www.w3.org/2000/svg">
    <path d="M9.90477 1.67625C7.77223 -0.456862 4.30123 -0.456862 2.16869 1.67625C1.13568 2.70994 0.56665 4.08399 0.56665 5.54532C0.56665 7.00666 1.13568 8.3807 2.16869 9.41399C3.23517 10.4808 4.63596 11.0139 6.03672 11.0139C7.43748 11.0139 8.83829 10.4808 9.90475 9.41399C12.0373 7.28088 12.0373 3.80977 9.90477 1.67625ZM9.30563 8.81469C7.50317 10.6176 4.57027 10.6176 2.7678 8.81469C1.89497 7.94163 1.41406 6.78034 1.41406 5.54532C1.41406 4.3103 1.89497 3.14902 2.7678 2.27552C4.57027 0.472573 7.50317 0.473001 9.30563 2.27552C11.1077 4.07847 11.1077 7.01217 9.30563 8.81469Z" fill="white"/>
    <path d="M7.74044 6.68187L6.60381 5.54536L7.74044 4.40885C7.89702 4.25207 7.89702 3.99759 7.74085 3.84038C7.58387 3.68279 7.32972 3.6832 7.17274 3.83998L6.03532 4.9773L4.89789 3.83998C4.74091 3.6832 4.48676 3.68279 4.32978 3.84038C4.17321 3.99757 4.17321 4.25205 4.33019 4.40885L5.46683 5.54536L4.33019 6.68187C4.17321 6.83865 4.17321 7.09313 4.32978 7.25034C4.40808 7.32913 4.51126 7.36812 4.61405 7.36812C4.71684 7.36812 4.81961 7.32872 4.89791 7.25073L6.03534 6.1134L7.17276 7.25073C7.25106 7.32913 7.35383 7.36812 7.45662 7.36812C7.55942 7.36812 7.66259 7.32872 7.74089 7.25034C7.89743 7.09313 7.89742 6.83865 7.74044 6.68187Z" fill="white"/>
</svg>
